<mxfile host="app.diagrams.net" modified="2024-04-22T09:11:13.365Z" agent="Mozilla/5.0 (Windows NT 10.0; Win64; x64) AppleWebKit/537.36 (KHTML, like Gecko) Chrome/123.0.0.0 Safari/537.36" etag="T9uEzgcNKM_1t1uWC5eR" version="24.2.5" type="device">
  <diagram name="Page-1" id="7KwwxJVfxOPEVuCDIVtz">
    <mxGraphModel dx="1290" dy="557" grid="1" gridSize="10" guides="1" tooltips="1" connect="1" arrows="1" fold="1" page="1" pageScale="1" pageWidth="850" pageHeight="1100" math="0" shadow="0">
      <root>
        <mxCell id="0" />
        <mxCell id="1" parent="0" />
        <mxCell id="uReDGmCJYD3ii4JyfwS7-3" value="" style="edgeStyle=orthogonalEdgeStyle;rounded=0;orthogonalLoop=1;jettySize=auto;html=1;" parent="1" source="uReDGmCJYD3ii4JyfwS7-1" target="uReDGmCJYD3ii4JyfwS7-2" edge="1">
          <mxGeometry relative="1" as="geometry" />
        </mxCell>
        <mxCell id="uReDGmCJYD3ii4JyfwS7-1" value="root&lt;br&gt;" style="ellipse;whiteSpace=wrap;html=1;" parent="1" vertex="1">
          <mxGeometry x="437.5" y="140" width="45" height="40" as="geometry" />
        </mxCell>
        <mxCell id="uReDGmCJYD3ii4JyfwS7-6" value="" style="edgeStyle=orthogonalEdgeStyle;rounded=0;orthogonalLoop=1;jettySize=auto;html=1;entryX=0.5;entryY=0;entryDx=0;entryDy=0;" parent="1" source="uReDGmCJYD3ii4JyfwS7-11" target="uReDGmCJYD3ii4JyfwS7-5" edge="1">
          <mxGeometry relative="1" as="geometry">
            <mxPoint x="340" y="370" as="sourcePoint" />
            <Array as="points">
              <mxPoint x="305" y="540" />
              <mxPoint x="360" y="540" />
            </Array>
          </mxGeometry>
        </mxCell>
        <mxCell id="uReDGmCJYD3ii4JyfwS7-8" value="" style="edgeStyle=orthogonalEdgeStyle;rounded=0;orthogonalLoop=1;jettySize=auto;html=1;" parent="1" source="uReDGmCJYD3ii4JyfwS7-11" target="uReDGmCJYD3ii4JyfwS7-7" edge="1">
          <mxGeometry relative="1" as="geometry">
            <mxPoint x="425" y="380" as="sourcePoint" />
          </mxGeometry>
        </mxCell>
        <mxCell id="uReDGmCJYD3ii4JyfwS7-19" value="" style="edgeStyle=orthogonalEdgeStyle;rounded=0;orthogonalLoop=1;jettySize=auto;html=1;" parent="1" source="uReDGmCJYD3ii4JyfwS7-2" target="uReDGmCJYD3ii4JyfwS7-18" edge="1">
          <mxGeometry relative="1" as="geometry">
            <Array as="points">
              <mxPoint x="460" y="270" />
              <mxPoint x="363" y="270" />
            </Array>
          </mxGeometry>
        </mxCell>
        <mxCell id="uReDGmCJYD3ii4JyfwS7-21" value="" style="edgeStyle=orthogonalEdgeStyle;rounded=0;orthogonalLoop=1;jettySize=auto;html=1;" parent="1" source="uReDGmCJYD3ii4JyfwS7-2" target="uReDGmCJYD3ii4JyfwS7-20" edge="1">
          <mxGeometry relative="1" as="geometry">
            <Array as="points">
              <mxPoint x="460" y="270" />
              <mxPoint x="580" y="270" />
            </Array>
          </mxGeometry>
        </mxCell>
        <mxCell id="uReDGmCJYD3ii4JyfwS7-2" value="r" style="ellipse;whiteSpace=wrap;html=1;" parent="1" vertex="1">
          <mxGeometry x="420" y="200" width="80" height="50" as="geometry" />
        </mxCell>
        <mxCell id="uReDGmCJYD3ii4JyfwS7-5" value="&amp;nbsp;e" style="ellipse;whiteSpace=wrap;html=1;" parent="1" vertex="1">
          <mxGeometry x="320" y="565" width="80" height="50" as="geometry" />
        </mxCell>
        <mxCell id="uReDGmCJYD3ii4JyfwS7-7" value="us" style="ellipse;whiteSpace=wrap;html=1;" parent="1" vertex="1">
          <mxGeometry x="210" y="565" width="80" height="50" as="geometry" />
        </mxCell>
        <mxCell id="uReDGmCJYD3ii4JyfwS7-11" value="an" style="ellipse;whiteSpace=wrap;html=1;" parent="1" vertex="1">
          <mxGeometry x="265" y="460" width="80" height="50" as="geometry" />
        </mxCell>
        <mxCell id="uReDGmCJYD3ii4JyfwS7-13" value="ulus" style="ellipse;whiteSpace=wrap;html=1;" parent="1" vertex="1">
          <mxGeometry x="360" y="460" width="80" height="50" as="geometry" />
        </mxCell>
        <mxCell id="RJwXV9djn8Y3x2dbMFg2-2" value="" style="edgeStyle=orthogonalEdgeStyle;rounded=0;orthogonalLoop=1;jettySize=auto;html=1;" edge="1" parent="1" source="uReDGmCJYD3ii4JyfwS7-18" target="RJwXV9djn8Y3x2dbMFg2-1">
          <mxGeometry relative="1" as="geometry" />
        </mxCell>
        <mxCell id="uReDGmCJYD3ii4JyfwS7-18" value="o" style="ellipse;whiteSpace=wrap;html=1;" parent="1" vertex="1">
          <mxGeometry x="323" y="290" width="80" height="50" as="geometry" />
        </mxCell>
        <mxCell id="uReDGmCJYD3ii4JyfwS7-33" value="" style="edgeStyle=orthogonalEdgeStyle;rounded=0;orthogonalLoop=1;jettySize=auto;html=1;" parent="1" source="uReDGmCJYD3ii4JyfwS7-20" target="uReDGmCJYD3ii4JyfwS7-32" edge="1">
          <mxGeometry relative="1" as="geometry">
            <Array as="points">
              <mxPoint x="590" y="390" />
              <mxPoint x="530" y="390" />
            </Array>
          </mxGeometry>
        </mxCell>
        <mxCell id="uReDGmCJYD3ii4JyfwS7-20" value="ub" style="ellipse;whiteSpace=wrap;html=1;" parent="1" vertex="1">
          <mxGeometry x="550" y="290" width="80" height="50" as="geometry" />
        </mxCell>
        <mxCell id="uReDGmCJYD3ii4JyfwS7-26" value="ns" style="ellipse;whiteSpace=wrap;html=1;" parent="1" vertex="1">
          <mxGeometry x="410" y="525" width="80" height="50" as="geometry" />
        </mxCell>
        <mxCell id="uReDGmCJYD3ii4JyfwS7-29" value="r" style="ellipse;whiteSpace=wrap;html=1;" parent="1" vertex="1">
          <mxGeometry x="500" y="525" width="80" height="50" as="geometry" />
        </mxCell>
        <mxCell id="uReDGmCJYD3ii4JyfwS7-38" style="edgeStyle=orthogonalEdgeStyle;rounded=0;orthogonalLoop=1;jettySize=auto;html=1;entryX=0.5;entryY=0;entryDx=0;entryDy=0;" parent="1" source="uReDGmCJYD3ii4JyfwS7-32" target="uReDGmCJYD3ii4JyfwS7-26" edge="1">
          <mxGeometry relative="1" as="geometry" />
        </mxCell>
        <mxCell id="uReDGmCJYD3ii4JyfwS7-39" style="edgeStyle=orthogonalEdgeStyle;rounded=0;orthogonalLoop=1;jettySize=auto;html=1;" parent="1" source="uReDGmCJYD3ii4JyfwS7-32" target="uReDGmCJYD3ii4JyfwS7-29" edge="1">
          <mxGeometry relative="1" as="geometry" />
        </mxCell>
        <mxCell id="uReDGmCJYD3ii4JyfwS7-32" value="e" style="ellipse;whiteSpace=wrap;html=1;" parent="1" vertex="1">
          <mxGeometry x="470" y="420" width="80" height="50" as="geometry" />
        </mxCell>
        <mxCell id="uReDGmCJYD3ii4JyfwS7-35" value="" style="edgeStyle=orthogonalEdgeStyle;rounded=0;orthogonalLoop=1;jettySize=auto;html=1;exitX=0.5;exitY=1;exitDx=0;exitDy=0;" parent="1" source="uReDGmCJYD3ii4JyfwS7-20" target="uReDGmCJYD3ii4JyfwS7-36" edge="1">
          <mxGeometry relative="1" as="geometry">
            <mxPoint x="593" y="340" as="sourcePoint" />
            <Array as="points">
              <mxPoint x="590" y="390" />
              <mxPoint x="660" y="390" />
            </Array>
          </mxGeometry>
        </mxCell>
        <mxCell id="uReDGmCJYD3ii4JyfwS7-40" style="edgeStyle=orthogonalEdgeStyle;rounded=0;orthogonalLoop=1;jettySize=auto;html=1;entryX=0.5;entryY=0;entryDx=0;entryDy=0;" parent="1" source="uReDGmCJYD3ii4JyfwS7-36" target="uReDGmCJYD3ii4JyfwS7-41" edge="1">
          <mxGeometry relative="1" as="geometry">
            <mxPoint x="620" y="540" as="targetPoint" />
          </mxGeometry>
        </mxCell>
        <mxCell id="uReDGmCJYD3ii4JyfwS7-43" style="edgeStyle=orthogonalEdgeStyle;rounded=0;orthogonalLoop=1;jettySize=auto;html=1;entryX=0.5;entryY=0;entryDx=0;entryDy=0;" parent="1" source="uReDGmCJYD3ii4JyfwS7-36" target="uReDGmCJYD3ii4JyfwS7-42" edge="1">
          <mxGeometry relative="1" as="geometry" />
        </mxCell>
        <mxCell id="uReDGmCJYD3ii4JyfwS7-36" value="ic" style="ellipse;whiteSpace=wrap;html=1;" parent="1" vertex="1">
          <mxGeometry x="620" y="430" width="80" height="50" as="geometry" />
        </mxCell>
        <mxCell id="uReDGmCJYD3ii4JyfwS7-41" value="on" style="ellipse;whiteSpace=wrap;html=1;" parent="1" vertex="1">
          <mxGeometry x="590" y="525" width="80" height="50" as="geometry" />
        </mxCell>
        <mxCell id="uReDGmCJYD3ii4JyfwS7-42" value="undus" style="ellipse;whiteSpace=wrap;html=1;" parent="1" vertex="1">
          <mxGeometry x="680" y="525" width="80" height="50" as="geometry" />
        </mxCell>
        <mxCell id="RJwXV9djn8Y3x2dbMFg2-3" style="edgeStyle=orthogonalEdgeStyle;rounded=0;orthogonalLoop=1;jettySize=auto;html=1;exitX=0.5;exitY=1;exitDx=0;exitDy=0;entryX=0.5;entryY=0;entryDx=0;entryDy=0;" edge="1" parent="1" source="RJwXV9djn8Y3x2dbMFg2-1" target="uReDGmCJYD3ii4JyfwS7-11">
          <mxGeometry relative="1" as="geometry">
            <Array as="points">
              <mxPoint x="363" y="450" />
              <mxPoint x="305" y="450" />
            </Array>
          </mxGeometry>
        </mxCell>
        <mxCell id="RJwXV9djn8Y3x2dbMFg2-4" style="edgeStyle=orthogonalEdgeStyle;rounded=0;orthogonalLoop=1;jettySize=auto;html=1;entryX=0.5;entryY=0;entryDx=0;entryDy=0;" edge="1" parent="1" source="RJwXV9djn8Y3x2dbMFg2-1" target="uReDGmCJYD3ii4JyfwS7-13">
          <mxGeometry relative="1" as="geometry">
            <Array as="points">
              <mxPoint x="363" y="450" />
              <mxPoint x="400" y="450" />
            </Array>
          </mxGeometry>
        </mxCell>
        <mxCell id="RJwXV9djn8Y3x2dbMFg2-1" value="m" style="ellipse;whiteSpace=wrap;html=1;" vertex="1" parent="1">
          <mxGeometry x="323" y="390" width="80" height="50" as="geometry" />
        </mxCell>
      </root>
    </mxGraphModel>
  </diagram>
</mxfile>
